<?xml version="1.0" standalone="no"?><!DOCTYPE svg PUBLIC "-//W3C//DTD SVG 1.1//EN" "http://www.w3.org/Graphics/SVG/1.1/DTD/svg11.dtd"><svg t="1776992263235" class="icon" viewBox="0 0 1024 1024" version="1.1" xmlns="http://www.w3.org/2000/svg" p-id="5432" xmlns:xlink="http://www.w3.org/1999/xlink" width="200" height="200"><path d="M544 672v-32c0-0.64 0-1.312-0.064-1.984A256.032 256.032 0 0 0 512 128a256 256 0 0 0-31.936 510.016L480 640v32h-64a32 32 0 1 0 0 64h64v64a32 32 0 1 0 64 0v-64h64a32 32 0 0 0 0-64h-64zM512 192a192 192 0 1 1 0 384 192 192 0 0 1 0-384z" fill="#eb2f96" p-id="5433"></path></svg>